<?xml version="1.0" encoding="UTF-8"?>
<svg id="Capa_1" data-name="Capa 1" xmlns="http://www.w3.org/2000/svg" viewBox="0 0 205.23 205.23">
  <defs>
    <style>
      .cls-1 {
        fill: #624CAB;
        stroke-width: 0px;
      }
    </style>
  </defs>
  <path class="cls-1" d="m102.62,205.23C46.03,205.23,0,159.2,0,102.61,0,46.03,46.03,0,102.62,0s102.61,46.03,102.61,102.61-46.03,102.62-102.61,102.62Zm0-196.61C50.79,8.62,8.61,50.78,8.61,102.61s42.17,93.99,94,93.99,93.99-42.16,93.99-94c0-51.83-42.16-93.99-93.99-93.99Z"/>
  <rect class="cls-1" x="5.74" y="98.3" width="193.73" height="8.62"/>
  <path class="cls-1" d="m104.94,62.11c-48.64,0-84.94-10.7-87.2-11.39l2.49-8.25c.82.25,82.66,24.34,164.38,0l2.45,8.26c-28.66,8.54-57.05,11.39-82.13,11.39Z"/>
  <path class="cls-1" d="m20.41,160.57l-2.46-8.26c84.27-25.08,165.9-1.03,169.33,0l-2.49,8.26c-.82-.25-82.65-24.33-164.38,0Z"/>
  <path class="cls-1" d="m69.4,196.17C26.93,96.75,63.58,8.6,63.96,7.73l7.93,3.38c-.36.85-35.53,85.76,5.44,181.68l-7.93,3.39Z"/>
  <path class="cls-1" d="m135.17,196.17l-7.93-3.38c40.97-95.92,5.8-180.83,5.44-181.68l7.93-3.38c.37.87,37.02,89.02-5.44,188.44Z"/>
  <rect class="cls-1" x="98.3" y="5.74" width="8.61" height="197.3"/>
</svg>