<?xml version="1.0" encoding="UTF-8"?>
<svg id="Layer_1" data-name="Layer 1" xmlns="http://www.w3.org/2000/svg" viewBox="0 0 731.43 460.64">
  <defs>
    <style>
      .cls-1 {
        fill: #624CAB;
        stroke-width: 0px;
      }
    </style>
  </defs>
  <path class="cls-1" d="m715.83,115.9L372.97,1.19c-4.71-1.59-9.79-1.59-14.51,0L15.6,115.9C6.16,119.07-.15,127.97,0,137.92s6.73,18.67,16.26,21.54l93.26,28.09v75.74c0,5.69,4.61,11.19,8.45,15.41,2.11,2.32,15.83,14.17,29.13,19.6,2.83,1.17,5.75,1.7,8.63,1.7,9.02,0,16.32-5.38,19.93-14.24,4.77-11.68-2.09-25.02-13.77-29.78-1.06-.43,4.78-1.44-6.65-2.67v-51.83l34.29,10.51v184.33c-10.72,5.79-18.09,17.01-18.09,30.03,0,18.93,15.35,34.29,34.29,34.29s34.29-15.36,34.29-34.29c0-6.29-1.82-12.1-4.77-17.15v-183.2l44.09,13.52,80,23.28c2.09.62,4.24.91,6.39.91s4.45-.32,6.59-.97l182.93-55.11v51.03c-11.43,13.94-74.66,50.77-197.57,50.77-27.62,0-48.46-1.33-68.8-4.07-12.53-1.58-24.02,7.1-25.7,19.61-1.68,12.51,7.1,24.02,19.6,25.7,22.38,3.02,47.69,4.48,77.37,4.48,173.25,0,234.66-67.86,237.29-70.74,3.84-4.21,3.51-9.7,3.51-15.41v-72.56c0-.86-.16-1.67-.25-2.5l114.48-34.48c9.53-2.87,16.1-11.59,16.26-21.54.15-9.95-6.16-18.86-15.6-22.02Zm-350.23,101.12l-73.19-21.29-28.91-8.87,112.99-39.63c11.9-4.23,20.27-17.31,16.03-29.2-4.24-11.9-17.95-18.1-29.83-13.86l-155.51,54.96c-4.02,1.43-7.87,3.94-10.99,7.1l-53.7-16.47-44.17-13.3L365.72,46.97l267.39,89.46-267.51,80.58Z"/>
  <path class="cls-1" d="m429.83,178.69c1.1,0,2.21-.16,3.3-.49l54.61-16.45c6.05-1.82,9.47-8.19,7.65-14.23-1.82-6.03-8.19-9.53-14.23-7.65l-54.61,16.45c-6.03,1.82-9.46,8.19-7.65,14.23,1.49,4.95,6.02,8.14,10.93,8.14Z"/>
  <path class="cls-1" d="m524.43,151.17c1.09,0,2.19-.16,3.29-.49l25.45-7.67c6.05-1.82,9.47-8.19,7.65-14.23-1.82-6.03-8.18-9.51-14.23-7.65l-25.45,7.67c-6.05,1.82-9.47,8.19-7.65,14.23,1.49,4.95,6.02,8.14,10.94,8.14Z"/>
</svg>