<?xml version="1.0" encoding="UTF-8"?>
<svg id="Layer_1" data-name="Layer 1" xmlns="http://www.w3.org/2000/svg" viewBox="0 0 800 565.01">
  <defs>
    <style>
      .cls-1 {
      fill: #624CAB;
      stroke-width: 0px;
      }
    </style>
  </defs>
  <path class="cls-1" d="m787.04,483.8h-14.69V54.43c0-30.01-24.42-54.43-54.43-54.43H82.07C52.06,0,27.65,24.42,27.65,54.43v429.37h-14.69c-7.16,0-12.96,5.8-12.96,12.96v27.65c0,22.39,18.22,40.6,40.6,40.6h718.79c22.39,0,40.6-18.22,40.6-40.6v-27.65c0-7.16-5.8-12.96-12.96-12.96ZM53.56,54.43c0-15.72,12.79-28.51,28.51-28.51h635.85c15.72,0,28.51,12.79,28.51,28.51v429.37H53.56V54.43Zm720.52,469.98c0,8.1-6.59,14.69-14.69,14.69H40.6c-8.1,0-14.69-6.59-14.69-14.69v-14.69h292.05c-.02.29-.04.57-.04.86,0,7.16,5.8,12.96,12.96,12.96h138.23c7.16,0,12.96-5.8,12.96-12.96,0-.29-.02-.58-.04-.86h292.05v14.69Z"/>
</svg>