<?xml version="1.0" encoding="UTF-8"?>
<svg id="Layer_1" data-name="Layer 1" xmlns="http://www.w3.org/2000/svg" viewBox="0 0 512 506.43">
  <defs>
    <style>
      .cls-1 {
        fill: #624CAB;
        stroke-width: 0px;
      }
    </style>
  </defs>
  <rect class="cls-1" x="28.35" y="192.41" width="15.51" height="290.57"/>
  <rect class="cls-1" x="468.14" y="192.41" width="15.51" height="290.57"/>
  <rect class="cls-1" x="248.24" y="82.45" width="15.51" height="47.12"/>
  <polygon class="cls-1" points="208.78 77.52 256 23.56 303.22 77.52 303.22 153.04 512 153.04 472.83 74.7 326.68 74.7 326.68 90.21 463.24 90.21 486.9 137.53 318.73 137.53 318.73 71.69 256 0 193.27 71.69 193.27 137.53 25.1 137.53 48.76 90.21 185.32 90.21 185.32 74.7 39.17 74.7 0 153.04 208.78 153.04 208.78 77.52"/>
  <polygon class="cls-1" points="491.5 160.99 475.99 160.99 475.99 168.94 36.01 168.94 36.01 160.99 20.5 160.99 20.5 184.45 491.5 184.45 491.5 160.99"/>
  <rect class="cls-1" x="185.32" y="490.92" width="141.36" height="15.51"/>
  <rect class="cls-1" x="334.53" y="490.92" width="172.77" height="15.51"/>
  <rect class="cls-1" x="4.7" y="490.92" width="172.77" height="15.51"/>
  <rect class="cls-1" x="201.03" y="467.36" width="109.94" height="15.51"/>
  <polygon class="cls-1" points="295.17 435.85 295.17 263.18 216.83 263.18 216.83 435.85 232.34 435.85 232.34 278.69 279.66 278.69 279.66 435.85 295.17 435.85"/>
  <path class="cls-1" d="m122.4,435.75v-227.55h-54.78v227.55h54.78Zm-39.26-212.04h23.75v133.7h-23.75v-133.7Zm0,149.21h23.75v47.31h-23.75v-47.31Z"/>
  <path class="cls-1" d="m193.08,435.75v-227.55h-54.78v227.55h54.78Zm-39.26-212.04h23.75v70.87h-23.75v-70.87Zm0,86.38h23.75v110.14h-23.75v-110.14Z"/>
  <path class="cls-1" d="m373.7,435.75v-227.55h-54.78v227.55h54.78Zm-39.27-212.04h23.75v23.75h-23.75v-23.75Zm0,39.27h23.75v157.26h-23.75v-157.26Z"/>
  <path class="cls-1" d="m444.38,435.75v-227.55h-54.78v227.55h54.78Zm-39.27-212.04h23.75v133.7h-23.75v-133.7Zm0,149.21h23.75v47.31h-23.75v-47.31Z"/>
  <rect class="cls-1" x="240.39" y="365.17" width="15.51" height="15.71"/>
  <rect class="cls-1" x="216.73" y="443.8" width="78.53" height="15.51"/>
</svg>